<svg width="14" height="14" viewBox="0 0 14 14" fill="none" xmlns="http://www.w3.org/2000/svg">
<path d="M4.80356 7C4.80356 5.89547 5.71133 4.99984 6.83144 4.99984C7.95154 4.99984 8.8598 5.89547 8.8598 7C8.8598 8.10453 7.95154 9.00016 6.83144 9.00016C5.71133 9.00016 4.80356 8.10453 4.80356 7ZM3.70706 7C3.70706 8.7016 5.10584 10.0809 6.83144 10.0809C8.55703 10.0809 9.95581 8.7016 9.95581 7C9.95581 5.2984 8.55703 3.91907 6.83144 3.91907C5.10584 3.91907 3.70711 5.2983 3.70711 7M9.34939 3.79691C9.34934 3.93932 9.3921 4.07854 9.47229 4.19697C9.55247 4.31541 9.66646 4.40774 9.79986 4.46228C9.93326 4.51683 10.0801 4.53115 10.2217 4.50342C10.3634 4.4757 10.4935 4.40717 10.5956 4.30652C10.6978 4.20587 10.7674 4.0776 10.7956 3.93795C10.8238 3.79829 10.8094 3.65352 10.7542 3.52193C10.699 3.39035 10.6055 3.27786 10.4854 3.1987C10.3654 3.11954 10.2242 3.07726 10.0798 3.0772H10.0795C9.88598 3.07729 9.70036 3.15314 9.56345 3.28808C9.42655 3.42302 9.34956 3.60603 9.34939 3.79691ZM4.37325 11.8839C3.78003 11.8573 3.45759 11.7598 3.24332 11.6775C2.95924 11.5684 2.75655 11.4386 2.54344 11.2287C2.33033 11.0188 2.19842 10.8192 2.08831 10.539C2.00478 10.3278 1.90597 10.0098 1.879 9.42482C1.8495 8.79237 1.84361 8.60238 1.84361 7.0001C1.84361 5.39781 1.84999 5.20835 1.879 4.57538C1.90602 3.9904 2.00556 3.67298 2.08831 3.46115C2.19891 3.18102 2.33063 2.98115 2.54344 2.77101C2.75626 2.56086 2.95875 2.43078 3.24332 2.32221C3.4575 2.23984 3.78003 2.1424 4.37325 2.11581C5.01462 2.08672 5.20728 2.08091 6.83144 2.08091C8.45559 2.08091 8.64845 2.0871 9.29035 2.1159C9.88357 2.14254 10.2055 2.2407 10.4203 2.3223C10.7044 2.43088 10.9071 2.56125 11.1202 2.7711C11.3333 2.98096 11.4647 3.18112 11.5753 3.46125C11.6588 3.67245 11.7576 3.9905 11.7846 4.57547C11.8141 5.20845 11.82 5.3979 11.82 7.00019C11.82 8.60248 11.8141 8.79194 11.7846 9.42491C11.7576 10.0099 11.6583 10.3278 11.5753 10.5391C11.4647 10.8193 11.333 11.0191 11.1202 11.2288C10.9073 11.4385 10.7044 11.5685 10.4203 11.6776C10.2061 11.76 9.88357 11.8574 9.29035 11.884C8.64898 11.9131 8.45632 11.9189 6.83144 11.9189C5.20655 11.9189 5.01443 11.9131 4.37325 11.884M4.32287 1.03634C3.67513 1.06542 3.23251 1.1667 2.84597 1.31502C2.44589 1.46819 2.10676 1.67368 1.76812 2.00709C1.42947 2.3405 1.22162 2.67496 1.06629 3.06995C0.915881 3.45136 0.813173 3.88758 0.783675 4.52632C0.75369 5.16606 0.746826 5.37059 0.746826 7C0.746826 8.62941 0.75369 8.83394 0.783675 9.47368C0.813173 10.1125 0.915881 10.5486 1.06629 10.93C1.22162 11.3246 1.42952 11.6596 1.76812 11.9929C2.10671 12.3262 2.44541 12.5314 2.84597 12.685C3.23324 12.8333 3.67513 12.9346 4.32287 12.9637C4.97198 12.9928 5.17905 13 6.83144 13C8.48382 13 8.69123 12.9932 9.34 12.9637C9.98779 12.9346 10.4301 12.8333 10.8169 12.685C11.217 12.5314 11.5561 12.3263 11.8948 11.9929C12.2334 11.6595 12.4408 11.3246 12.5966 10.93C12.747 10.5486 12.8502 10.1124 12.8792 9.47368C12.9087 8.83346 12.9156 8.62941 12.9156 7C12.9156 5.37059 12.9087 5.16606 12.8792 4.52632C12.8497 3.88754 12.747 3.45112 12.5966 3.06995C12.4408 2.67544 12.2329 2.34102 11.8948 2.00709C11.5566 1.67315 11.217 1.46819 10.8174 1.31502C10.4301 1.1667 9.98774 1.06494 9.34049 1.03634C8.69162 1.0071 8.48431 1 6.83217 1C5.18002 1 4.97222 1.00677 4.32312 1.03634" fill="white"/>
<path d="M4.80356 7C4.80356 5.89547 5.71133 4.99984 6.83144 4.99984C7.95154 4.99984 8.8598 5.89547 8.8598 7C8.8598 8.10453 7.95154 9.00016 6.83144 9.00016C5.71133 9.00016 4.80356 8.10453 4.80356 7M3.70706 7C3.70706 8.7016 5.10584 10.0809 6.83144 10.0809C8.55703 10.0809 9.95581 8.7016 9.95581 7C9.95581 5.2984 8.55703 3.91907 6.83144 3.91907C5.10584 3.91907 3.70711 5.2983 3.70711 7M9.34939 3.79691C9.34934 3.93931 9.3921 4.07854 9.47229 4.19697C9.55247 4.31541 9.66646 4.40774 9.79986 4.46228C9.93326 4.51683 10.0801 4.53115 10.2217 4.50342C10.3634 4.4757 10.4935 4.40717 10.5956 4.30652C10.6978 4.20587 10.7674 4.0776 10.7956 3.93795C10.8238 3.79829 10.8094 3.65352 10.7542 3.52193C10.699 3.39035 10.6055 3.27786 10.4854 3.1987C10.3654 3.11954 10.2243 3.07726 10.0798 3.0772H10.0795C9.88598 3.07729 9.70036 3.15314 9.56345 3.28808C9.42655 3.42302 9.34956 3.60603 9.34939 3.79691M4.37325 11.8839C3.78003 11.8573 3.45759 11.7598 3.24332 11.6775C2.95924 11.5684 2.75655 11.4386 2.54344 11.2287C2.33033 11.0188 2.19842 10.8192 2.08831 10.539C2.00478 10.3278 1.90597 10.0098 1.879 9.42482C1.8495 8.79237 1.84361 8.60238 1.84361 7.0001C1.84361 5.39781 1.84999 5.20835 1.879 4.57538C1.90602 3.9904 2.00556 3.67298 2.08831 3.46115C2.19891 3.18102 2.33063 2.98115 2.54344 2.77101C2.75626 2.56086 2.95875 2.43078 3.24332 2.32221C3.4575 2.23984 3.78003 2.1424 4.37325 2.11581C5.01462 2.08672 5.20728 2.08091 6.83144 2.08091C8.45559 2.08091 8.64845 2.0871 9.29035 2.1159C9.88357 2.14254 10.2055 2.2407 10.4203 2.3223C10.7044 2.43088 10.9071 2.56125 11.1202 2.7711C11.3333 2.98096 11.4647 3.18112 11.5753 3.46125C11.6588 3.67245 11.7576 3.9905 11.7846 4.57547C11.8141 5.20845 11.82 5.3979 11.82 7.00019C11.82 8.60248 11.8141 8.79194 11.7846 9.42491C11.7576 10.0099 11.6583 10.3278 11.5753 10.5391C11.4647 10.8193 11.333 11.0191 11.1202 11.2288C10.9073 11.4385 10.7044 11.5685 10.4203 11.6776C10.2061 11.76 9.88357 11.8574 9.29035 11.884C8.64898 11.9131 8.45632 11.9189 6.83144 11.9189C5.20655 11.9189 5.01443 11.9131 4.37325 11.884M4.32287 1.03634C3.67513 1.06542 3.23251 1.1667 2.84597 1.31502C2.44589 1.46819 2.10676 1.67368 1.76812 2.00709C1.42947 2.3405 1.22162 2.67496 1.06629 3.06995C0.915881 3.45136 0.813173 3.88758 0.783675 4.52632C0.75369 5.16606 0.746826 5.37059 0.746826 7C0.746826 8.62941 0.75369 8.83394 0.783675 9.47368C0.813173 10.1125 0.915881 10.5486 1.06629 10.93C1.22162 11.3246 1.42952 11.6596 1.76812 11.9929C2.10671 12.3262 2.44541 12.5314 2.84597 12.685C3.23324 12.8333 3.67513 12.9346 4.32287 12.9637C4.97198 12.9928 5.17905 13 6.83144 13C8.48382 13 8.69123 12.9932 9.34 12.9637C9.98779 12.9346 10.4301 12.8333 10.8169 12.685C11.217 12.5314 11.5561 12.3263 11.8948 11.9929C12.2334 11.6595 12.4408 11.3246 12.5966 10.93C12.747 10.5486 12.8502 10.1124 12.8792 9.47368C12.9087 8.83346 12.9156 8.62941 12.9156 7C12.9156 5.37059 12.9087 5.16606 12.8792 4.52632C12.8497 3.88754 12.747 3.45112 12.5966 3.06995C12.4408 2.67544 12.2329 2.34102 11.8948 2.00709C11.5566 1.67315 11.217 1.46819 10.8174 1.31502C10.4301 1.1667 9.98774 1.06494 9.34049 1.03634C8.69162 1.0071 8.48431 1 6.83217 1C5.18002 1 4.97222 1.00677 4.32312 1.03634" stroke="white" stroke-width="0.2"/>
</svg>
