<svg width="11" height="10" viewBox="0 0 11 10" fill="none" xmlns="http://www.w3.org/2000/svg">
<path d="M3.06294 9.99977V3.25254H0.889119V9.99977H3.06317H3.06294ZM1.97648 2.33148C2.73438 2.33148 3.20623 1.81338 3.20623 1.16589C3.19204 0.503647 2.73438 0 1.9909 0C1.2469 0 0.760986 0.503647 0.760986 1.16583C0.760986 1.81332 1.23266 2.33142 1.96224 2.33142H1.97631L1.97648 2.33148ZM4.26618 9.99977H6.43984V6.23222C6.43984 6.03083 6.45402 5.82891 6.51145 5.68507C6.66852 5.282 7.02619 4.86477 7.62685 4.86477C8.41323 4.86477 8.728 5.48345 8.728 6.39058V9.99977H10.9016V6.13111C10.9016 4.05874 9.82933 3.09436 8.39916 3.09436C7.22662 3.09436 6.71165 3.77048 6.42554 4.23098H6.44001V3.25278H4.2663C4.29467 3.88575 4.26613 10 4.26613 10L4.26618 9.99977Z" fill="white"/>
</svg>
