<svg width="32" height="28" viewBox="0 0 32 28" fill="none" xmlns="http://www.w3.org/2000/svg">
<path d="M28.4897 7.875V20.125C28.4897 20.8212 28.1842 21.4889 27.6405 21.9812C27.0967 22.4734 26.3593 22.75 25.5903 22.75H6.26151C5.49256 22.75 4.7551 22.4734 4.21138 21.9812C3.66765 21.4889 3.36218 20.8212 3.36218 20.125V7.875M28.4897 7.875C28.4897 7.17881 28.1842 6.51113 27.6405 6.01884C27.0967 5.52656 26.3593 5.25 25.5903 5.25H6.26151C5.49256 5.25 4.7551 5.52656 4.21138 6.01884C3.66765 6.51113 3.36218 7.17881 3.36218 7.875M28.4897 7.875V8.1585C28.4897 8.60667 28.363 9.04739 28.1217 9.43868C27.8803 9.82997 27.5323 10.1588 27.1109 10.3938L17.4465 15.778C16.9893 16.033 16.4629 16.168 15.9259 16.168C15.389 16.168 14.8626 16.033 14.4054 15.778L4.74097 10.395C4.3195 10.16 3.97152 9.83113 3.73016 9.43985C3.48881 9.04856 3.36213 8.60784 3.36218 8.15967V7.875" stroke="white" stroke-width="1.5" stroke-linecap="round" stroke-linejoin="round"/>
</svg>
