<svg width="28" height="26" viewBox="0 0 28 26" fill="none" xmlns="http://www.w3.org/2000/svg">
<path d="M1.36218 6.875C1.36218 16.5397 10.0163 24.375 20.691 24.375H23.5903C24.3593 24.375 25.0967 24.0984 25.6405 23.6062C26.1842 23.1139 26.4897 22.4462 26.4897 21.75V20.1493C26.4897 19.5473 26.0374 19.0223 25.3918 18.8765L19.6924 17.5862C19.1254 17.4578 18.53 17.6503 18.1808 18.0727L16.9309 19.5812C16.5675 20.0198 15.94 20.2135 15.3717 20.0245C13.2621 19.3223 11.3464 18.2134 9.75706 16.7744C8.16775 15.3355 6.9429 13.601 6.16733 11.691C5.95858 11.1765 6.17248 10.6083 6.65699 10.2793L8.32314 9.14767C8.7909 8.8315 9.00222 8.29133 8.86048 7.77917L7.4353 2.619C7.35688 2.33514 7.17593 2.08315 6.92122 1.90306C6.66651 1.72297 6.35263 1.6251 6.02945 1.625H4.26151C3.49256 1.625 2.7551 1.90156 2.21138 2.39384C1.66765 2.88613 1.36218 3.55381 1.36218 4.25V6.875Z" stroke="white" stroke-width="1.5" stroke-linecap="round" stroke-linejoin="round"/>
</svg>
